<svg fill="none" height="484" viewBox="0 0 580 484" width="580" xmlns="http://www.w3.org/2000/svg"><path d="m78 5c6 33 23 50 56 56-33 6-50 23-56 56-6-33-23-50-56-56 33-6 50-23 56-56z" fill="#7a00df"/><path d="m173 33c4 21 15 32 36 36-21 4-32 15-36 36-4-21-15-32-36-36 21-4 32-15 36-36z" fill="#3858e9"/><path d="m36 112c4 21 15 32 36 36-21 4-32 15-36 36-4-21-15-32-36-36 21-4 32-15 36-36z" fill="#e26f56"/><path d="m246 5h329v414h-329z" fill="#f9f9f9" stroke="#979aa1" stroke-width="10"/><path d="m302 62h217v18h-217z" fill="#23282d"/><g fill="#1a1919"><path d="m302 112h217v12h-217z"/><path d="m302 152h217v12h-217z"/><path d="m302 192h217v12h-217z"/><path d="m302 318h217v12h-217z"/></g><path d="m302 354h217v8h-217z" fill="#23282d"/><path d="m302 232h217v58h-217z" fill="#1a1919"/><path d="m208 417c82.843 0 150-67.157 150-150s-67.157-150-150-150-150 67.157-150 150 67.157 150 150 150z" fill="#fff" fill-opacity=".56"/><path d="m208 107c88.366 0 160 71.634 160 160 0 36.666-12.335 70.45-33.079 97.433 2.317 1.055 4.485 2.543 6.38 4.463l77 78c8.342 8.45 8.254 22.063-.197 30.405-8.45 8.342-22.063 8.254-30.405-.197l-77-78c-1.781-1.804-3.177-3.845-4.19-6.019-27.158 21.248-61.354 33.915-98.509 33.915-88.366 0-160-71.634-160-160s71.634-160 160-160zm0 20c-77.32 0-140 62.68-140 140s62.68 140 140 140 140-62.68 140-140-62.68-140-140-140z" fill="#071b33"/><path d="m133 267 67 52 68-112" stroke="#071b33" stroke-linecap="round" stroke-linejoin="round" stroke-width="18"/><path d="m133 287c11.046 0 20-8.954 20-20s-8.954-20-20-20-20 8.954-20 20 8.954 20 20 20z" fill="#e26f56"/><path d="m200 339c11.046 0 20-8.954 20-20s-8.954-20-20-20-20 8.954-20 20 8.954 20 20 20z" fill="#3858e9"/><path d="m268 227c11.046 0 20-8.954 20-20s-8.954-20-20-20-20 8.954-20 20 8.954 20 20 20z" fill="#7a00df"/></svg>